<?xml version="1.0" encoding="UTF-8"?>
<svg version="1.1" xmlns="http://www.w3.org/2000/svg" width="2000" height="553">
<path d="M0 0 C0.81380127 0.46293457 1.62760254 0.92586914 2.46606445 1.40283203 C3.47725342 1.89960449 4.48844238 2.39637695 5.53027344 2.90820312 C6.66279541 3.49166504 7.79531738 4.07512695 8.9621582 4.67626953 C9.58318924 4.99585632 10.20422028 5.31544312 10.84407043 5.64471436 C12.86533304 6.68634045 14.88457391 7.73180956 16.90356445 8.77783203 C17.59857056 9.13697693 18.29357666 9.49612183 19.00964355 9.8661499 C28.50574563 14.77509636 37.9366816 19.78489401 47.29541016 24.9519043 C55.75573983 29.60646738 64.33230323 34.03061222 72.93188477 38.42089844 C89.10785687 46.72410758 89.10785687 46.72410758 94.46606445 50.40283203 C94.46606445 51.06283203 94.46606445 51.72283203 94.46606445 52.40283203 C92.8046875 53.62036133 92.8046875 53.62036133 90.4777832 54.97705078 C89.63070801 55.47688477 88.78363281 55.97671875 87.91088867 56.49169922 C86.54601318 57.28302246 86.54601318 57.28302246 85.15356445 58.09033203 C83.31558874 59.17111238 81.47834392 60.2531367 79.6418457 61.33642578 C78.30500732 62.12315674 78.30500732 62.12315674 76.94116211 62.92578125 C73.00906111 65.27232012 69.18179643 67.76464997 65.36450195 70.29345703 C63.46606445 71.40283203 63.46606445 71.40283203 61.46606445 71.40283203 C61.46606445 72.06283203 61.46606445 72.72283203 61.46606445 73.40283203 C62.51020508 73.77021484 62.51020508 73.77021484 63.57543945 74.14501953 C66.89843242 75.59097053 69.74846879 77.47891589 72.71606445 79.52783203 C79.55723233 84.16943234 86.49404717 88.648051 93.46606445 93.09033203 C101.66181553 98.31755303 109.8322951 103.5796661 117.96606445 108.90283203 C125.9359175 114.11742834 133.93783453 119.27857502 141.96606445 124.40283203 C152.99613679 131.44383181 163.96289884 138.57824583 174.91625977 145.73779297 C185.43414724 152.60604197 196.00532177 159.38976346 206.59106445 166.15283203 C216.8200727 172.68902388 227.00081191 179.29603503 237.16137695 185.93798828 C243.91661106 190.35375262 250.69364249 194.73550786 257.47290039 199.11425781 C259.4536094 200.39477988 261.43273849 201.67770706 263.41137695 202.96142578 C271.78394963 208.39118365 280.18123853 213.78094231 288.59106445 219.15283203 C297.93583565 225.12335931 307.24496843 231.14571376 316.5234375 237.21875 C320.67395982 239.9345645 324.82761237 242.64322577 329.01293945 245.30517578 C329.68043213 245.73000244 330.3479248 246.1548291 331.03564453 246.5925293 C332.75910792 247.68616604 334.48550181 248.77518096 336.2121582 249.86376953 C336.95594727 250.37166016 337.69973633 250.87955078 338.46606445 251.40283203 C338.46606445 251.73283203 338.46606445 252.06283203 338.46606445 252.40283203 C322.29701041 252.63734821 306.12851529 252.81321716 289.95816708 252.92095375 C282.44841805 252.97232753 274.93973097 253.04225191 267.43066406 253.15722656 C260.8789496 253.25749419 254.32800472 253.32155228 247.77554423 253.34371698 C244.31162619 253.35665709 240.84990795 253.38664071 237.38670158 253.4601326 C221.07016511 253.79301074 209.91564102 253.43889997 197.46606445 242.40283203 C195.39627171 240.95704723 193.27945471 239.64209385 191.13012695 238.31298828 C189.64222656 237.36359375 189.64222656 237.36359375 188.12426758 236.39501953 C187.12331055 235.75822266 186.12235352 235.12142578 185.09106445 234.46533203 C182.90595489 233.07113571 180.7210593 231.67660396 178.53637695 230.28173828 C177.49255859 229.6154541 176.44874023 228.94916992 175.37329102 228.26269531 C171.56133062 225.82403943 167.76171229 223.36677289 163.96606445 220.90283203 C157.04813854 216.41374894 150.1027769 211.96830352 143.15356445 207.52783203 C134.76620674 202.16756625 126.40247544 196.77353855 118.06445312 191.33691406 C111.38808545 186.98923246 104.68027642 182.69178925 97.96606445 178.40283203 C90.44633431 173.59931956 82.94057602 168.77642329 75.46606445 163.90283203 C66.85867141 158.29087843 58.20825718 152.74776044 49.55004883 147.21459961 C43.51213893 143.35502347 37.48075797 139.4859951 31.46606445 135.59033203 C30.80131104 135.16010742 30.13655762 134.72988281 29.45166016 134.28662109 C25.9513289 132.0193464 22.45654584 129.74383602 18.96606445 127.46142578 C18.21325195 126.9706958 17.46043945 126.47996582 16.68481445 125.97436523 C15.26648109 125.04967056 13.84965983 124.12264971 12.43481445 123.19262695 C7.56961725 120.02457754 2.57097813 117.16651649 -2.53393555 114.40283203 C-3.1760498 114.8142041 -3.81816406 115.22557617 -4.47973633 115.64941406 C-18.58317814 124.68353138 -32.69783094 133.6994988 -46.83227539 142.68505859 C-51.40039612 145.58956767 -55.96708632 148.49632432 -60.53393555 151.40283203 C-62.36726218 152.56950923 -64.20059551 153.7361759 -66.03393555 154.90283203 C-66.94143555 155.48033203 -67.84893555 156.05783203 -68.78393555 156.65283203 C-77.03393554 161.90283203 -77.03393554 161.90283203 -79.78320312 163.65234375 C-81.61900467 164.82059591 -83.45477935 165.98889027 -85.29052734 167.15722656 C-89.83587931 170.04997958 -94.38167522 172.94202973 -98.9284668 175.83251953 C-108.64002024 182.00749571 -118.34258185 188.19619413 -128.03393555 194.40283203 C-138.62100541 201.18311382 -149.22257701 207.94025306 -159.83227539 214.68505859 C-163.48201916 217.00564391 -167.13082638 219.32769933 -170.77954102 221.64990234 C-172.60788448 222.81348204 -174.43633409 223.97689497 -176.26489258 225.14013672 C-180.96196486 228.1283438 -185.65743175 231.11902934 -190.3503418 234.11376953 C-191.31262695 234.72736328 -192.27491211 235.34095703 -193.26635742 235.97314453 C-195.07417968 237.12595872 -196.88152021 238.27952894 -198.68823242 239.43408203 C-200.35521621 240.49663983 -202.03333626 241.54196206 -203.72299194 242.56808472 C-206.54772961 244.32013852 -206.54772961 244.32013852 -208.89016724 246.45266724 C-219.82408237 255.04123243 -232.81688623 253.44026292 -246.09319329 253.21398354 C-249.56169058 253.16349079 -253.03026109 253.15923633 -256.49906921 253.14978027 C-263.04756927 253.12505454 -269.59498283 253.05959975 -276.14300746 252.97898436 C-283.60613225 252.88912518 -291.06931282 252.84546977 -298.53284514 252.80542088 C-313.86716809 252.72211679 -329.20041095 252.58168167 -344.53393555 252.40283203 C-342.2703848 250.07851836 -340.06080738 248.33885371 -337.30737305 246.60986328 C-336.45296631 246.07014893 -335.59855957 245.53043457 -334.71826172 244.97436523 C-333.79118408 244.39388428 -332.86410645 243.81340332 -331.90893555 243.21533203 C-329.91259833 241.95530102 -327.91651441 240.69486863 -325.9206543 239.43408203 C-324.87570801 238.77537109 -323.83076172 238.11666016 -322.75415039 237.43798828 C-317.39623441 234.05181788 -312.0587538 230.63384377 -306.72143555 227.21533203 C-305.13214233 226.19814087 -305.13214233 226.19814087 -303.51074219 225.16040039 C-297.61188507 221.38265583 -291.72273137 217.59055998 -285.84643555 213.77783203 C-278.67746847 209.12675032 -271.47141231 204.5353122 -264.2590332 199.9519043 C-250.08868934 190.94541267 -235.93176741 181.91684411 -221.84643555 172.77783203 C-214.67746847 168.12675032 -207.47141231 163.5353122 -200.2590332 158.9519043 C-186.08868934 149.94541267 -171.93176741 140.91684411 -157.84643555 131.77783203 C-150.67167286 127.12299025 -143.45988155 122.5276922 -136.24145508 117.94091797 C-129.22655443 113.4826927 -122.22126103 109.0096875 -115.22143555 104.52783203 C-114.18937988 103.86702637 -113.15732422 103.2062207 -112.09399414 102.52539062 C-109.98554389 101.17521112 -107.87714586 99.82495005 -105.76879883 98.47460938 C-100.23271588 94.92900939 -94.69587086 91.38460072 -89.15893555 87.84033203 C-88.15564209 87.19789551 -87.15234863 86.55545898 -86.11865234 85.89355469 C-84.67292847 84.96808838 -84.67292847 84.96808838 -83.19799805 84.02392578 C-82.26761719 83.42692871 -81.33723633 82.82993164 -80.37866211 82.21484375 C-78.39295203 80.95000164 -76.39944437 79.69735458 -74.40014648 78.45410156 C-73.40015625 77.83003418 -72.40016602 77.2059668 -71.36987305 76.56298828 C-70.46543457 76.00361572 -69.56099609 75.44424316 -68.62915039 74.86791992 C-66.41907956 73.5703895 -66.41907956 73.5703895 -65.53393555 71.40283203 C-66.23969727 71.13784912 -66.94545898 70.87286621 -67.67260742 70.59985352 C-70.69255988 69.33647238 -73.4628539 67.85620234 -76.31518555 66.25048828 C-77.40444336 65.63882813 -78.49370117 65.02716797 -79.6159668 64.39697266 C-80.74389648 63.75953125 -81.87182617 63.12208984 -83.03393555 62.46533203 C-84.16186523 61.83175781 -85.28979492 61.19818359 -86.4519043 60.54541016 C-91.18025885 57.88466153 -95.89224794 55.21274863 -100.53393555 52.40283203 C-99.34612282 48.83939384 -98.81388871 48.7289711 -95.59106445 47.10961914 C-94.3317662 46.46765846 -94.3317662 46.46765846 -93.04702759 45.81272888 C-92.12747284 45.35648636 -91.20791809 44.90024384 -90.26049805 44.43017578 C-88.83198013 43.7063546 -88.83198013 43.7063546 -87.37460327 42.96791077 C-84.30731806 41.41605866 -81.23343969 39.8778249 -78.15893555 38.34033203 C-75.16218251 36.83105559 -72.16685488 35.31897866 -69.17166138 33.80661011 C-67.18210757 32.80206317 -65.19209333 31.79842765 -63.20162964 30.79568481 C-51.65288393 24.96930879 -40.22532816 18.92063081 -28.82589722 12.80833435 C-25.98120926 11.28738245 -23.1296329 9.77971541 -20.27612305 8.27539062 C-18.83619397 7.51192269 -17.39977594 6.74180374 -15.96655273 5.96582031 C-13.84393518 4.81839553 -11.7102934 3.6944973 -9.57299805 2.57470703 C-8.93657379 2.22390076 -8.30014954 1.87309448 -7.6444397 1.51165771 C-4.82454565 0.06058121 -3.14489537 -0.74115176 0 0 Z " fill="#FFFFFF" transform="translate(364.533935546875,5.59716796875)"/>
<path d="M0 0 C144.21 0 288.42 0 437 0 C437 22.11 437 44.22 437 67 C292.79 67 148.58 67 0 67 C0 44.89 0 22.78 0 0 Z " fill="#FFFFFF" transform="translate(143,478)"/>
<path d="M0 0 C0.96691772 -0.00014603 1.93383545 -0.00029205 2.93005371 -0.0004425 C6.09523844 0.00024877 9.26036278 0.0080041 12.42553711 0.01586914 C14.63227812 0.01773611 16.83901954 0.0191587 19.04576111 0.02015686 C24.83085287 0.02396005 30.6159192 0.03377142 36.40100098 0.04486084 C42.31347306 0.05512237 48.22594929 0.05966461 54.13842773 0.06469727 C65.72242503 0.07539579 77.30639684 0.09297464 88.89038086 0.11352539 C88.89038086 10.01352539 88.89038086 19.91352539 88.89038086 30.11352539 C85.80686279 30.12287109 82.72334473 30.1322168 79.54638672 30.1418457 C69.35229282 30.17563043 59.15840105 30.2311879 48.96446896 30.29742813 C42.78457014 30.33691751 36.60481414 30.36909904 30.42480469 30.38452148 C24.45943676 30.39967812 18.49446141 30.43410687 12.52926826 30.48183441 C10.25477068 30.4966583 7.98021705 30.50456698 5.70567131 30.50540924 C2.51673526 30.50777751 -0.67111468 30.53484757 -3.85986328 30.56762695 C-5.26680199 30.56008141 -5.26680199 30.56008141 -6.7021637 30.55238342 C-12.66894932 30.6471188 -16.23372119 31.60529241 -21.10961914 35.11352539 C-24.62698009 40.38956681 -25.72746041 45.96181903 -24.48461914 52.17602539 C-23.21168142 56.51750171 -21.42707567 59.01723263 -18.10961914 62.11352539 C-13.15123257 63.89140393 -8.77431915 64.36381073 -3.52880859 64.36889648 C-2.80579056 64.37251694 -2.08277252 64.37613739 -1.33784485 64.37986755 C0.22095676 64.38672127 1.77978216 64.3892746 3.33859825 64.38792038 C5.81678048 64.38694731 8.29453814 64.39999061 10.7726593 64.41690063 C17.81471462 64.46292503 24.85672503 64.48774775 31.89892578 64.49438477 C36.2190127 64.49943594 40.53865538 64.52386699 44.85859108 64.55971146 C46.49259571 64.56942682 48.12666211 64.57188719 49.76068687 64.56653976 C65.63325874 64.51704519 79.11915899 67.76460694 91.14038086 78.73852539 C101.01194436 89.18959363 103.59210926 102.17046403 103.20288086 116.04321289 C102.53158547 127.91954717 97.34407122 139.11249114 88.82788086 147.36352539 C72.35474724 160.99456058 52.21839132 159.39767411 32.12084961 159.30883789 C29.62836318 159.3051021 27.13587527 159.30225781 24.64338684 159.30026245 C18.12181456 159.29267058 11.60033309 159.27306075 5.07879639 159.25085449 C-1.59141271 159.22919954 -8.26165029 159.22124024 -14.93188477 159.21118164 C-27.99117562 159.18981026 -41.05037558 159.15466484 -54.10961914 159.11352539 C-54.10961914 149.21352539 -54.10961914 139.31352539 -54.10961914 129.11352539 C-50.63229248 129.10417969 -47.15496582 129.09483398 -43.57226562 129.08520508 C-32.08098742 129.05143239 -20.58986949 128.99608226 -9.09873867 128.92962265 C-2.13190271 128.88985598 4.83482068 128.85745155 11.80175781 128.8425293 C18.52572758 128.82810659 25.24929813 128.79296848 31.97312737 128.74521637 C34.53790186 128.73038338 37.10272616 128.72248328 39.66754341 128.72164154 C43.26116221 128.71927605 46.85381356 128.69222739 50.44726562 128.65942383 C51.50678436 128.66445419 52.5663031 128.66948456 53.65792847 128.67466736 C59.93964686 128.58599991 63.77673837 127.84793628 68.89038086 124.11352539 C72.9720058 118.84691256 72.5198394 112.4780506 71.89038086 106.11352539 C70.19976572 100.85383386 67.68565902 98.75582152 62.89038086 96.11352539 C59.18610757 94.83840406 55.43003706 94.96869904 51.55834961 94.97167969 C50.82601608 94.96820526 50.09368256 94.96473083 49.3391571 94.96115112 C47.75083166 94.95380983 46.16249606 94.94845579 44.57415771 94.94486046 C42.05008771 94.93766491 39.52620875 94.9219723 37.00219727 94.90351868 C29.8261183 94.85121676 22.65014212 94.80316193 15.47387695 94.78759766 C11.07941743 94.77744378 6.68543725 94.74792933 2.29116821 94.70627785 C0.62647143 94.69406265 -1.03829337 94.68882903 -2.70303345 94.69107628 C-17.46129745 94.70608677 -31.00105077 92.45370838 -42.33227539 82.07836914 C-53.0374376 70.73289817 -55.7354091 58.51516436 -55.35180664 43.33618164 C-54.77866667 30.67319309 -50.03418425 20.46877808 -40.79711914 11.73852539 C-28.75075838 1.72383365 -15.11976231 -0.06084823 0 0 Z " fill="#FFFFFF" transform="translate(916.109619140625,261.886474609375)"/>
<path d="M0 0 C1.84782074 -0.00956978 1.84782074 -0.00956978 3.73297119 -0.01933289 C5.07035279 -0.02086217 6.40773492 -0.0219758 7.74511719 -0.02270508 C9.12888625 -0.02592236 10.51265498 -0.02928679 11.89642334 -0.03279114 C14.79472643 -0.03876913 17.69299977 -0.04063249 20.59130859 -0.04003906 C24.28406231 -0.03993771 27.97662259 -0.05356786 31.6693306 -0.07081127 C34.52800349 -0.08199618 37.38663065 -0.08395626 40.24532318 -0.08342934 C42.26197234 -0.08516578 44.27860721 -0.09596764 46.29522705 -0.10697937 C58.76982243 -0.07613964 69.33913303 1.75529105 79.09277344 10.11791992 C86.39063068 17.69064937 90.87486394 27.84989191 90.953125 38.39770508 C90.96273254 39.44624664 90.97234009 40.49478821 90.98223877 41.57510376 C90.98861359 43.26885635 90.98861359 43.26885635 90.99511719 44.99682617 C91.00081726 46.16603607 91.00651733 47.33524597 91.01239014 48.53988647 C91.02183678 51.01624651 91.02837278 53.49261909 91.03222656 55.96899414 C91.04190162 59.73500913 91.07291657 63.5004712 91.10449219 67.26635742 C91.11102567 69.67651044 91.11627478 72.08666736 91.12011719 74.49682617 C91.13246399 75.61384918 91.14481079 76.73087219 91.15753174 77.88174438 C91.12665527 88.86413118 88.57281116 98.35531315 81.79199219 107.14526367 C70.79058228 117.9809273 57.32314837 120.37398989 42.35174561 120.37185669 C41.25437073 120.36153412 40.15699585 120.35121155 39.02636719 120.34057617 C37.86695618 120.33774628 36.70754517 120.33491638 35.51300049 120.33200073 C31.85588703 120.32091894 28.19903004 120.29583736 24.54199219 120.27026367 C22.04329784 120.26021834 19.5445996 120.25109523 17.04589844 120.24291992 C10.96108776 120.22273143 4.87682276 120.18355981 -1.20800781 120.14526367 C-1.20800781 110.24526367 -1.20800781 100.34526367 -1.20800781 90.14526367 C2.77648438 90.11948242 6.76097656 90.09370117 10.86621094 90.06713867 C14.72525092 90.02872637 18.58415693 89.98356322 22.44311523 89.93774414 C25.12509644 89.90730858 27.8068897 89.88662835 30.48901367 89.87426758 C34.34434778 89.85286095 38.19867705 89.8062186 42.05371094 89.75463867 C43.25283615 89.75341003 44.45196136 89.7521814 45.68742371 89.75091553 C52.13122301 89.67839098 52.13122301 89.67839098 58.02563477 87.35717773 C60.67835088 84.03532452 60.91453923 81.00347177 60.953125 76.83911133 C60.96273254 75.99788727 60.97234009 75.15666321 60.98223877 74.28994751 C60.98648865 73.38884247 60.99073853 72.48773743 60.99511719 71.55932617 C61.00081726 70.62478607 61.00651733 69.69024597 61.01239014 68.72738647 C61.02182615 66.75210701 61.02836856 64.77681191 61.03222656 62.80151367 C61.04193436 59.78821232 61.07297191 56.77559262 61.10449219 53.76245117 C61.11102255 51.84058021 61.11627289 49.91870438 61.12011719 47.99682617 C61.13863739 46.6512413 61.13863739 46.6512413 61.15753174 45.2784729 C61.13940112 40.15827793 60.68842497 36.56219145 57.79199219 32.14526367 C55.09150371 30.79501943 52.96059555 30.99569679 49.93701172 30.96826172 C48.70878693 30.95542648 47.48056213 30.94259125 46.21511841 30.92936707 C44.86835126 30.92120026 43.52157956 30.91375641 42.17480469 30.90698242 C41.15901651 30.90086913 41.15901651 30.90086913 40.12270737 30.89463234 C36.53900202 30.87377549 32.95533494 30.85947167 29.37158203 30.85009766 C25.67021107 30.83902848 21.96944053 30.80462275 18.26828194 30.76492596 C15.42181276 30.7387823 12.57548722 30.73040794 9.72890854 30.72681618 C8.36454077 30.72194498 7.00017964 30.71031562 5.63592911 30.69177818 C3.7260205 30.66743774 1.81582006 30.67076654 -0.09423828 30.67529297 C-1.18074677 30.66942673 -2.26725525 30.66356049 -3.38668823 30.65751648 C-6.89975799 31.26485282 -8.04346106 32.36533277 -10.20800781 35.14526367 C-11.18276543 38.06953654 -11.34375318 39.97702875 -11.3662262 43.02372742 C-11.38090942 44.5318399 -11.38090942 44.5318399 -11.39588928 46.07041931 C-11.40164474 47.17237137 -11.40740021 48.27432343 -11.41333008 49.40966797 C-11.42817947 51.15133743 -11.42817947 51.15133743 -11.44332886 52.92819214 C-11.47497682 56.77526799 -11.49971442 60.6223562 -11.52441406 64.46948242 C-11.54498074 67.1332085 -11.56592918 69.79692882 -11.58738708 72.46064758 C-11.63730071 78.76102334 -11.68224447 85.06142439 -11.72540945 91.36184961 C-11.77479319 98.53472686 -11.8297071 105.70755842 -11.88508904 112.88039148 C-11.99888867 127.63530669 -12.10500206 142.3902688 -12.20800781 157.14526367 C-21.77800781 157.14526367 -31.34800781 157.14526367 -41.20800781 157.14526367 C-41.29852257 141.05452452 -41.37211394 124.96400479 -41.4152565 108.87308121 C-41.4358264 101.40072727 -41.46383938 93.9285435 -41.50976562 86.45629883 C-41.5498052 79.93867964 -41.57548106 73.42118378 -41.58436179 66.90344501 C-41.58954783 63.45664614 -41.60161809 60.01019986 -41.63092804 56.56351471 C-41.66348663 52.70300504 -41.66395633 48.84283106 -41.66210938 44.98217773 C-41.67649048 43.85647873 -41.69087158 42.73077972 -41.70568848 41.57096863 C-41.6455823 29.89369304 -38.6279884 19.51703827 -30.20800781 11.14526367 C-21.2875122 3.56875002 -11.67185629 0.04115935 0 0 Z " fill="#FFFFFF" transform="translate(1079.2080078125,300.854736328125)"/>
<path d="M0 0 C8.80649592 -0.06806717 17.61281405 -0.12298294 26.41951466 -0.15543652 C30.50983857 -0.17102101 34.5999715 -0.19212543 38.69018555 -0.22631836 C42.64540646 -0.25917182 46.60044491 -0.27690712 50.55579185 -0.28463173 C52.05670731 -0.29012903 53.55761399 -0.30086243 55.0584507 -0.31719017 C69.14750947 -0.46422055 81.52491131 1.22750934 92.26171875 11.07421875 C99.16227412 18.38294005 103.07434017 26.40614709 103.17700195 36.49609375 C103.19625481 38.14931641 103.19625481 38.14931641 103.21589661 39.8359375 C103.22328354 41.02445312 103.23067047 42.21296875 103.23828125 43.4375 C103.246353 44.66855469 103.25442474 45.89960938 103.26274109 47.16796875 C103.27657481 49.7771667 103.28730014 52.3863827 103.29516602 54.99560547 C103.30832596 58.95698885 103.35620223 62.91774969 103.40039062 66.87890625 C103.41052375 69.41926472 103.41903791 71.95963027 103.42578125 74.5 C103.44328934 75.67232178 103.46079742 76.84464355 103.47883606 78.05249023 C103.44759181 90.0924421 100.51034089 100.24600927 92 109 C80.64245334 119.55472632 67.35490692 120.14670043 52.58203125 120.203125 C51.40718674 120.20882507 50.23234222 120.21452515 49.02189636 120.22039795 C46.54512419 120.22980475 44.06833975 120.23636465 41.59155273 120.24023438 C37.84140723 120.2499253 34.09181378 120.28098518 30.34179688 120.3125 C-3.83723898 120.46568814 -3.83723898 120.46568814 -17.8125 107.75 C-25.05400408 99.96196731 -27.9289454 90.27421505 -28.03125 79.80078125 C-27.44521433 67.42077771 -23.7581874 57.88285911 -15 49 C-5.09458028 40.40078948 6.34005341 39.54839474 18.98046875 39.70703125 C20.27447098 39.71127609 21.56847321 39.71552094 22.90168762 39.71989441 C26.30313256 39.7312214 29.70417882 39.76057967 33.10546875 39.79400635 C36.59174107 39.82497318 40.0780812 39.83862164 43.56445312 39.85351562 C50.37665148 39.883864 57.18776231 39.94261141 64 40 C64 49.24 64 58.48 64 68 C60.09929687 68.02578125 56.19859375 68.0515625 52.1796875 68.078125 C48.39673685 68.11655069 44.61392226 68.16170952 40.83105469 68.20751953 C38.20449329 68.23572378 35.5778471 68.25694096 32.95117188 68.27099609 C29.17273566 68.292432 25.39531837 68.33908948 21.6171875 68.390625 C20.44509735 68.39185364 19.2730072 68.39308228 18.06539917 68.39434814 C11.80203107 68.50655524 7.7096178 68.67770958 3 73 C1.15561987 76.68876027 1.51211266 80.97330313 2 85 C3.88515223 87.57637471 5.19334857 88.59667428 8 90 C9.88279575 90.11151989 11.76950546 90.15925845 13.65551758 90.17700195 C14.84047318 90.18983719 16.02542877 90.20267242 17.24629211 90.21589661 C19.17592049 90.22697701 19.17592049 90.22697701 21.14453125 90.23828125 C22.46160568 90.246353 23.77868011 90.25442474 25.13566589 90.26274109 C27.92743807 90.27776861 30.71918479 90.28760613 33.51098633 90.29516602 C37.08223304 90.30622376 40.6528555 90.34061556 44.22388172 90.38033772 C47.63490655 90.41281378 51.04586375 90.41728368 54.45703125 90.42578125 C55.73737747 90.44328934 57.01772369 90.46079742 58.33686829 90.47883606 C59.53128036 90.47591049 60.72569244 90.47298492 61.95629883 90.4699707 C63.00505692 90.47583694 64.053815 90.48170319 65.13435364 90.48774719 C68.72870981 89.87596998 70.3953847 88.49834308 73 86 C74.19388319 83.61223363 74.13928881 82.11157717 74.16113281 79.44604492 C74.17074036 78.50133835 74.1803479 77.55663177 74.19024658 76.58329773 C74.19449646 75.55936417 74.19874634 74.5354306 74.203125 73.48046875 C74.20882507 72.42974686 74.21452515 71.37902496 74.22039795 70.29646301 C74.22985652 68.06964121 74.23638532 65.84280536 74.24023438 63.6159668 C74.24993071 60.21182748 74.2809427 56.80829416 74.3125 53.40429688 C74.31903086 51.24219109 74.32428101 49.08008098 74.328125 46.91796875 C74.3466452 45.39117744 74.3466452 45.39117744 74.36553955 43.83354187 C74.44786575 36.85559325 74.44786575 36.85559325 71 31 C67.06015047 29.02549367 63.75041996 28.73136237 59.3737793 28.68115234 C58.72931351 28.67110672 58.08484772 28.6610611 57.42085266 28.65071106 C55.30531652 28.61999064 53.18990628 28.60287552 51.07421875 28.5859375 C49.60161769 28.56721683 48.12902725 28.54764274 46.65644836 28.5272522 C42.79155758 28.47601977 38.92663205 28.43634672 35.06158447 28.39910889 C31.11323515 28.3590133 27.16502924 28.30794636 23.21679688 28.2578125 C15.47795572 28.16115847 7.73905856 28.07773502 0 28 C0 18.76 0 9.52 0 0 Z " fill="#FFFFFF" transform="translate(1383,301)"/>
<path d="M0 0 C1.39711126 -0.00389612 2.79422135 -0.00823264 4.19132996 -0.01298523 C7.11042124 -0.020415 10.02939151 -0.02018042 12.94848633 -0.01489258 C16.6601286 -0.0091101 20.37126987 -0.02601476 24.08282948 -0.04923725 C26.9664746 -0.06408516 29.85000223 -0.06483128 32.73367882 -0.06172752 C34.7580066 -0.06247975 36.78231635 -0.07626389 38.80659485 -0.09040833 C52.06629337 -0.02458105 63.70122031 2.54693077 73.453125 12.11328125 C81.86389239 22.43851999 83.75411577 34.32382086 83.80859375 47.18359375 C83.81429382 48.23425018 83.8199939 49.28490662 83.8258667 50.36740112 C83.83529277 52.58802288 83.84184115 54.80865847 83.84570312 57.02929688 C83.85537589 60.3934838 83.88640927 63.75705082 83.91796875 67.12109375 C83.92450311 69.28775682 83.92975188 71.45442423 83.93359375 73.62109375 C83.94594055 74.61215118 83.95828735 75.60320862 83.9710083 76.6242981 C83.931969 89.12198266 81.05041579 99.1136888 72.671875 108.45703125 C61.39586688 119.54683006 47.24067422 120.44704782 32.28515625 120.50390625 C31.10889679 120.50960632 29.93263733 120.5153064 28.72073364 120.5211792 C26.23798512 120.53059469 23.7552243 120.5371494 21.27246094 120.54101562 C17.51344466 120.55069633 13.75498143 120.58174365 9.99609375 120.61328125 C-24.94859496 120.76728789 -24.94859496 120.76728789 -38.50390625 108.359375 C-50.32939708 95.48327238 -49.58133513 79.58811029 -49.57983398 63.22558594 C-49.58201481 60.57079894 -49.60020649 57.91643229 -49.61914062 55.26171875 C-49.67650204 38.05650827 -49.28217984 23.76387282 -37.0234375 10.63671875 C-26.27422506 1.0854126 -13.70451855 -0.01601255 0 0 Z M-18.39453125 34.30078125 C-19.33179868 37.11258353 -19.53066201 38.872003 -19.55566406 41.78466797 C-19.56527161 42.68925751 -19.57487915 43.59384705 -19.58477783 44.52584839 C-19.58902771 45.50087311 -19.59327759 46.47589783 -19.59765625 47.48046875 C-19.60335632 48.48538361 -19.6090564 49.49029846 -19.6149292 50.52566528 C-19.62437702 52.65235339 -19.63091232 54.77905612 -19.63476562 56.90576172 C-19.64447273 60.15618458 -19.6754991 63.40597551 -19.70703125 66.65625 C-19.71356131 68.7226525 -19.71881177 70.78905951 -19.72265625 72.85546875 C-19.73500305 73.82644501 -19.74734985 74.79742126 -19.7600708 75.79782104 C-19.76867552 82.56988326 -19.76867552 82.56988326 -16.39453125 88.30078125 C-13.10458003 90.38476872 -10.45860036 90.55809776 -6.60375977 90.57543945 C-5.43897598 90.58497147 -4.2741922 90.59450348 -3.07411194 90.60432434 C-1.19277809 90.60295723 -1.19277809 90.60295723 0.7265625 90.6015625 C2.66463524 90.60799019 2.66463524 90.60799019 4.64186096 90.61454773 C7.37464505 90.6220005 10.10729992 90.62172559 12.84008789 90.61645508 C16.33497329 90.61066178 19.82932848 90.62759188 23.32412624 90.65079975 C26.66662697 90.66911004 30.00901192 90.66535119 33.3515625 90.6640625 C34.60376083 90.67327225 35.85595917 90.68248199 37.14610291 90.69197083 C38.31403885 90.68574203 39.48197479 90.67951324 40.68530273 90.6730957 C41.71026352 90.67372513 42.7352243 90.67435455 43.79124451 90.67500305 C47.0915044 90.2361506 48.93870743 89.26890787 51.60546875 87.30078125 C53.72720419 84.1181781 53.86248028 83.28652434 53.89599609 79.63330078 C53.9087558 78.68866974 53.9215155 77.7440387 53.93466187 76.77078247 C53.93688751 75.75201019 53.93911316 74.73323792 53.94140625 73.68359375 C53.94806305 72.6342868 53.95471985 71.58497986 53.96157837 70.50387573 C53.97170807 68.28303786 53.97639529 66.06216954 53.97607422 63.84130859 C53.98044302 60.44577754 54.01674843 57.05155063 54.0546875 53.65625 C54.06055644 51.49870236 54.06452532 49.34114855 54.06640625 47.18359375 C54.08077728 46.16886993 54.09514832 45.15414612 54.10995483 44.1086731 C54.08113408 39.6546636 54.06164867 37.0478212 51.70166016 33.18310547 C48.32961112 30.15509498 46.31697675 30.16502738 41.8581543 30.1237793 C40.65317795 30.11094406 39.4482016 30.09810883 38.20671082 30.08488464 C36.89841812 30.07749771 35.59012543 30.07011078 34.2421875 30.0625 C33.5772761 30.05842447 32.91236469 30.05434895 32.22730446 30.05014992 C28.70728491 30.02929045 25.18730432 30.01498884 21.66723633 30.00561523 C18.03546018 29.99455697 14.4042978 29.96016465 10.77273846 29.92044353 C7.97684102 29.89426751 5.18108953 29.88592255 2.38508034 29.88233376 C0.39698687 29.8751083 -1.59100679 29.84867247 -3.57893372 29.82194519 C-4.79336655 29.82487076 -6.00779938 29.82779633 -7.2590332 29.83081055 C-8.32555618 29.82494431 -9.39207916 29.81907806 -10.49092102 29.81303406 C-14.13398963 30.42499515 -15.79187114 31.72308976 -18.39453125 34.30078125 Z " fill="#FFFFFF" transform="translate(1738.39453125,300.69921875)"/>
<path d="M0 0 C0.69679367 -0.00671722 1.39358734 -0.01343445 2.11149597 -0.02035522 C4.40993454 -0.0393096 6.70807995 -0.04325992 9.0065918 -0.04541016 C10.620215 -0.05184639 12.23383706 -0.05857535 13.84745789 -0.06558228 C17.23427017 -0.07755335 20.62098056 -0.08126393 24.0078125 -0.08007812 C28.30317326 -0.07987644 32.59786111 -0.10702142 36.89306355 -0.14162254 C40.23157105 -0.1641154 43.56992333 -0.1679087 46.90849876 -0.16685867 C48.48900834 -0.16918721 50.06952407 -0.17785157 51.64995766 -0.19352341 C69.7149641 -0.35569453 86.26367286 2.78569205 99.83081055 15.72802734 C110.13899977 26.78049016 114.03288631 39.75530968 114.00683594 54.78637695 C114.00698196 55.49940979 114.00712799 56.21244263 114.00727844 56.94708252 C114.00658767 59.27904415 113.99883484 61.6109236 113.9909668 63.94287109 C113.98909964 65.56954403 113.98767714 67.19621753 113.98667908 68.82289124 C113.98287732 73.08567888 113.97306722 77.34843198 113.9619751 81.61120605 C113.95171044 85.96850111 113.94717066 90.32580179 113.94213867 94.68310547 C113.93144268 103.21893032 113.91386504 111.75472054 113.89331055 120.29052734 C103.99331055 120.29052734 94.09331055 120.29052734 83.89331055 120.29052734 C83.88396484 118.12103516 83.87461914 115.95154297 83.86499023 113.71630859 C83.83113932 106.5276916 83.77554552 99.33935923 83.70940781 92.15097046 C83.66999149 87.79496816 83.63777453 83.43916624 83.62231445 79.08300781 C83.60710908 74.87468341 83.57259553 70.66691011 83.52500153 66.45883179 C83.51022754 64.85782679 83.50227183 63.2567431 83.5014267 61.65567017 C83.51717474 49.92397718 83.51717474 49.92397718 78.89331055 39.29052734 C78.56331055 38.30052734 78.23331055 37.31052734 77.89331055 36.29052734 C76.1956182 35.18883751 76.1956182 35.18883751 73.89331055 34.29052734 C72.95608154 33.78545654 72.01885254 33.28038574 71.05322266 32.76000977 C65.59318341 30.43483169 59.79980852 30.80988678 53.9597168 30.77880859 C52.86590698 30.76217163 51.77209717 30.74553467 50.6451416 30.72839355 C46.58222431 30.67081644 42.51898185 30.63839709 38.45581055 30.60302734 C29.36018555 30.49990234 20.26456055 30.39677734 10.89331055 30.29052734 C10.89331055 59.99052734 10.89331055 89.69052734 10.89331055 120.29052734 C0.99331055 120.29052734 -8.90668945 120.29052734 -19.10668945 120.29052734 C-19.15189065 106.59074132 -19.18857713 92.8910049 -19.2103138 79.19116116 C-19.22074678 72.82964238 -19.23489727 66.46817732 -19.25756836 60.10668945 C-19.27931382 53.96644119 -19.29126174 47.82624457 -19.29644394 41.68596077 C-19.30013661 39.3444341 -19.30734746 37.00291023 -19.31814957 34.66140556 C-19.33268692 31.37943307 -19.33466643 28.09767339 -19.33374023 24.81567383 C-19.34093079 23.84966248 -19.34812134 22.88365112 -19.35552979 21.8883667 C-19.33542287 15.29517529 -19.13588965 9.75847353 -14.79418945 4.47802734 C-10.01107573 0.58479524 -6.09878568 0.03704048 0 0 Z " fill="#FFFFFF" transform="translate(726.106689453125,300.70947265625)"/>
<path d="M0 0 C0.71165817 -0.00540298 1.42331635 -0.01080597 2.15653992 -0.01637268 C4.4913495 -0.02879933 6.82491019 -0.01240084 9.15966797 0.00561523 C10.80003931 0.00546 12.44041101 0.003967 14.08078003 0.00120544 C17.51544458 -0.0001762 20.94969042 0.01233159 24.38427734 0.03515625 C28.7515605 0.06340543 33.11814156 0.06083721 37.48547554 0.04806614 C40.87449965 0.04105084 44.26336645 0.0489665 47.65237045 0.06132317 C49.26044991 0.06579069 50.86854656 0.06621635 52.47662735 0.06225777 C71.30685511 0.03761771 87.24579692 3.5259269 101.30419922 16.98999023 C112.84401156 30.0305866 113.9782065 44.10534551 113.81982422 60.63842773 C113.81421778 62.37148163 113.80995264 64.10454033 113.80696106 65.83760071 C113.79559467 70.36348978 113.76619977 74.88908263 113.73284912 79.41485596 C113.70196968 84.04728185 113.6884178 88.67975636 113.67333984 93.31225586 C113.6413208 102.37555692 113.58862158 111.43856179 113.52685547 120.50170898 C103.95685547 120.50170898 94.38685547 120.50170898 84.52685547 120.50170898 C84.52274658 118.3729834 84.5186377 116.24425781 84.5144043 114.05102539 C84.49714037 106.98613309 84.45252851 99.92159919 84.3947649 92.85692787 C84.36059948 88.57715593 84.33540131 84.29773699 84.33129883 80.01782227 C84.32699326 75.88072893 84.29834581 71.74443047 84.25342369 67.60758591 C84.2405203 66.03614319 84.23611542 64.464605 84.24070168 62.893116 C84.26238629 53.19908108 83.90710621 44.45057973 77.04914856 36.86782837 C72.42727227 32.7201154 67.92011494 31.26550031 61.81860352 31.18286133 C60.68225464 31.16280029 59.54590576 31.14273926 58.37512207 31.12207031 C56.59978088 31.10503052 56.59978088 31.10503052 54.78857422 31.08764648 C53.69275024 31.07000244 52.59692627 31.0523584 51.46789551 31.03417969 C47.38353007 30.97122386 43.29892109 30.92496044 39.21435547 30.87670898 C30.07748047 30.75295898 20.94060547 30.62920898 11.52685547 30.50170898 C11.52685547 60.20170898 11.52685547 89.90170898 11.52685547 120.50170898 C1.62685547 120.50170898 -8.27314453 120.50170898 -18.47314453 120.50170898 C-18.56354009 106.41077936 -18.63691548 92.32004256 -18.68039322 78.22888851 C-18.70126111 71.68568581 -18.72956496 65.14269191 -18.77490234 58.59960938 C-18.81838738 52.28428153 -18.84228764 45.96915444 -18.8526535 39.65368843 C-18.86004 37.2451518 -18.87446406 34.83662606 -18.89606476 32.42817497 C-18.92513302 29.05262447 -18.92909895 25.67790178 -18.92724609 22.30224609 C-18.9416272 21.30818253 -18.9560083 20.31411896 -18.9708252 19.28993225 C-18.93443621 13.15678795 -18.30251678 9.38946788 -14.47314453 4.50170898 C-9.96788831 0.75923919 -5.84746224 0.00076053 0 0 Z " fill="#FFFFFF" transform="translate(569.47314453125,300.498291015625)"/>
<path d="M0 0 C0.71268036 -0.0049649 1.42536072 -0.00992981 2.15963745 -0.01504517 C4.5205787 -0.02966145 6.88145254 -0.03647136 9.24243164 -0.04199219 C10.89091492 -0.0477484 12.5393982 -0.05350608 14.18788147 -0.05926514 C17.65048534 -0.06977658 21.11306601 -0.07561688 24.57568359 -0.07910156 C28.98345635 -0.08455673 33.39091557 -0.10851965 37.79859066 -0.13707352 C41.20897773 -0.15583578 44.61929174 -0.16091288 48.02972603 -0.16243744 C49.65261086 -0.16543895 51.27549519 -0.17338144 52.89832878 -0.18662262 C70.76031461 -0.32184214 87.68243592 3.1088636 101.00024414 15.93066406 C109.95969719 26.10133542 114.14747083 37.35167048 114.07861328 50.79711914 C114.07875931 51.54887421 114.07890533 52.30062927 114.07905579 53.07516479 C114.07836184 55.54786107 114.07059379 58.02048103 114.06274414 60.49316406 C114.06087812 62.21237649 114.05945508 63.93158946 114.05845642 65.65080261 C114.05464575 70.1667936 114.04482786 74.68275223 114.03375244 79.19873047 C114.02350713 83.81054242 114.01895212 88.42235962 114.01391602 93.03417969 C114.00320427 102.07651388 113.98561923 111.11881558 113.96508789 120.16113281 C104.39508789 120.16113281 94.82508789 120.16113281 84.96508789 120.16113281 C84.95574219 118.0627002 84.94639648 115.96426758 84.93676758 113.80224609 C84.90286661 106.83715618 84.84724559 99.87235847 84.78118515 92.90750313 C84.7418241 88.68832054 84.70958033 84.46934311 84.6940918 80.25 C84.67884963 76.1713369 84.64427221 72.09323824 84.59677887 68.01482773 C84.58204244 66.46571661 84.57405136 64.91652488 84.57320404 63.3673439 C84.6737677 49.31539221 84.6737677 49.31539221 78.21551514 37.23342896 C73.44088118 32.7858803 68.80408037 30.93096115 62.25683594 30.84228516 C61.13605148 30.82241547 60.01526703 30.80254578 58.86051941 30.78207397 C57.06183159 30.76474716 57.06183159 30.76474716 55.22680664 30.74707031 C53.37295097 30.71802109 53.37295097 30.71802109 51.48164368 30.68838501 C48.20856823 30.63880726 44.93552689 30.59750452 41.66229248 30.5602417 C38.31715332 30.52011263 34.97220416 30.46889829 31.62719727 30.41894531 C25.07326928 30.32296474 18.51926761 30.2378961 11.96508789 30.16113281 C11.9673085 31.27391098 11.96952911 32.38668915 11.97181702 33.53318787 C11.99204744 43.99605411 12.00705955 54.45891642 12.01690006 64.92179775 C12.02212914 70.30147043 12.02922724 75.68112739 12.04052734 81.06079102 C12.05135534 86.24788125 12.05736454 91.4349563 12.05996513 96.62205696 C12.06181954 98.60569561 12.06544045 100.58933339 12.07081795 102.57296562 C12.07802721 105.34122417 12.07907888 108.1094192 12.07861328 110.87768555 C12.08220856 111.706306 12.08580383 112.53492645 12.08950806 113.38865662 C12.07914005 119.04708065 12.07914005 119.04708065 10.96508789 120.16113281 C8.81949962 120.24888886 6.67104368 120.268085 4.52368164 120.25878906 C3.21850586 120.25556641 1.91333008 120.25234375 0.56860352 120.24902344 C-0.82006901 120.24066682 -2.20874088 120.23220186 -3.59741211 120.22363281 C-4.98998867 120.21861947 -6.38256692 120.21405628 -7.77514648 120.20996094 C-11.19511081 120.19812715 -14.61499055 120.18164161 -18.03491211 120.16113281 C-18.10505346 106.05295912 -18.15772578 91.94481255 -18.19034863 77.83650017 C-18.20600578 71.28546985 -18.22724535 64.73455666 -18.26123047 58.18359375 C-18.29382156 51.86179579 -18.31176475 45.5401105 -18.31954384 39.21823502 C-18.32508775 36.80609488 -18.33591356 34.39396092 -18.35210228 31.98186874 C-18.37387271 28.603825 -18.37687912 25.22624712 -18.37548828 21.84814453 C-18.38627411 20.85048569 -18.39705994 19.85282684 -18.40817261 18.82493591 C-18.38449423 13.51169886 -18.05464173 9.7353261 -15.03491211 5.16113281 C-10.10213231 0.59831149 -6.5964399 0.03492837 0 0 Z " fill="#FFFFFF" transform="translate(1863.034912109375,300.8388671875)"/>
<path d="M0 0 C9.9 0 19.8 0 30 0 C30 12.87 30 25.74 30 39 C46.5 39 63 39 80 39 C80 48.9 80 58.8 80 69 C63.5 69 47 69 30 69 C30 98.7 30 128.4 30 159 C20.1 159 10.2 159 0 159 C0 129.3 0 99.6 0 69 C-12.21 69 -24.42 69 -37 69 C-37 59.1 -37 49.2 -37 39 C-24.79 39 -12.58 39 0 39 C0 26.13 0 13.26 0 0 Z " fill="#FFFFFF" transform="translate(1538,262)"/>
<path d="M0 0 C25.41 0 50.82 0 77 0 C77 27.72 77 55.44 77 84 C51.59 84 26.18 84 0 84 C0 56.28 0 28.56 0 0 Z " fill="#FFFFFF" transform="translate(377,335)"/>
<path d="M0 0 C25.41 0 50.82 0 77 0 C77 27.39 77 54.78 77 83 C51.59 83 26.18 83 0 83 C0 55.61 0 28.22 0 0 Z " fill="#FFFFFF" transform="translate(377,223)"/>
<path d="M0 0 C25.08 0 50.16 0 76 0 C76 27.72 76 55.44 76 84 C50.92 84 25.84 84 0 84 C0 56.28 0 28.56 0 0 Z " fill="#FFFFFF" transform="translate(269,335)"/>
<path d="M0 0 C25.08 0 50.16 0 76 0 C76 27.39 76 54.78 76 83 C50.92 83 25.84 83 0 83 C0 55.61 0 28.22 0 0 Z " fill="#FFFFFF" transform="translate(269,223)"/>
<path d="M0 0 C1.5565523 0.00373671 3.11310697 0.00658057 4.66966248 0.00857544 C8.7384812 0.01616015 12.80715393 0.0357634 16.87591553 0.0579834 C21.77276849 0.08217958 26.66967066 0.09124743 31.56656647 0.10289001 C38.98067666 0.12219153 46.39446741 0.16054973 53.80859375 0.1953125 C53.80859375 10.0953125 53.80859375 19.9953125 53.80859375 30.1953125 C48.8740625 30.25589844 43.93953125 30.31648438 38.85546875 30.37890625 C35.72915796 30.41940171 32.60285578 30.46017553 29.4765625 30.50195312 C24.51451552 30.5682359 19.55246997 30.63348843 14.59033203 30.69262695 C10.58971338 30.74037061 6.58917899 30.7927169 2.58866119 30.84825325 C1.06247303 30.86863152 -0.4637382 30.887352 -1.98996735 30.90438652 C-4.12783641 30.928531 -6.26554749 30.95857144 -8.40332031 30.98999023 C-9.62021545 31.00553452 -10.8371106 31.0210788 -12.09088135 31.03709412 C-14.6457691 31.16746888 -16.76189166 31.44418812 -19.19140625 32.1953125 C-20.49319722 36.17599497 -20.36582264 40.21977571 -20.39672852 44.36035156 C-20.41157791 45.59017761 -20.41157791 45.59017761 -20.42672729 46.84484863 C-20.45827108 49.55018239 -20.48307154 52.25553369 -20.5078125 54.9609375 C-20.52838818 56.83852592 -20.54938481 58.71610977 -20.57078552 60.59368896 C-20.6259428 65.5321482 -20.67538005 70.4706488 -20.72363281 75.40917969 C-20.77389417 80.44990718 -20.82955604 85.49057471 -20.88476562 90.53125 C-20.99226962 100.41922148 -21.09323267 110.30724398 -21.19140625 120.1953125 C-31.09140625 120.1953125 -40.99140625 120.1953125 -51.19140625 120.1953125 C-51.25938289 109.17229015 -51.31433789 98.14940872 -51.34684277 87.12622356 C-51.36244927 82.00683953 -51.38359528 76.88760726 -51.41772461 71.76831055 C-51.45049773 66.8210636 -51.46829692 61.87396196 -51.47603798 56.92661476 C-51.48154942 55.04611743 -51.49231132 53.16562738 -51.50859642 51.28519249 C-51.62462445 37.32280169 -51.19743445 24.6682093 -42.19140625 13.1953125 C-29.87746098 1.29183208 -16.42620436 -0.11653334 0 0 Z " fill="#FFFFFF" transform="translate(1300.19140625,300.8046875)"/>
<path d="M0 0 C9.57 0 19.14 0 29 0 C29 52.47 29 104.94 29 159 C19.43 159 9.86 159 0 159 C0 106.53 0 54.06 0 0 Z " fill="#FFFFFF" transform="translate(493,262)"/>
<path d="M0 0 C9.9 0 19.8 0 30 0 C30 39.6 30 79.2 30 120 C20.1 120 10.2 120 0 120 C0 80.4 0 40.8 0 0 Z " fill="#FFFFFF" transform="translate(1636,301)"/>
<path d="M0 0 C9.57 0 19.14 0 29 0 C29 39.6 29 79.2 29 120 C19.43 120 9.86 120 0 120 C0 80.4 0 40.8 0 0 Z " fill="#FFFFFF" transform="translate(1194,301)"/>
<path d="M0 0 C9.9 0 19.8 0 30 0 C30 8.91 30 17.82 30 27 C20.1 27 10.2 27 0 27 C0 18.09 0 9.18 0 0 Z " fill="#FFFFFF" transform="translate(1636,251)"/>
<path d="M0 0 C9.57 0 19.14 0 29 0 C29 8.91 29 17.82 29 27 C19.43 27 9.86 27 0 27 C0 18.09 0 9.18 0 0 Z " fill="#FFFFFF" transform="translate(1194,251)"/>
</svg>
