<?xml version="1.0" encoding="UTF-8"?>
<svg version="1.1" xmlns="http://www.w3.org/2000/svg" width="2000" height="1584">
<path d="M0 0 C2.71191406 1.20483398 2.71191406 1.20483398 5.515625 2.74609375 C6.58377441 3.32657471 7.65192383 3.90705566 8.75244141 4.50512695 C9.90663574 5.14281006 11.06083008 5.78049316 12.25 6.4375 C14.12773063 7.46145791 16.007236 8.48211087 17.88674927 9.50279236 C19.21027444 10.22188858 20.5332417 10.94201249 21.85568237 11.6631012 C28.70680309 15.39682566 35.60070227 19.04811747 42.50054932 22.6907959 C44.6426651 23.82182712 46.78408263 24.95416974 48.92529297 26.08691406 C53.28305903 28.39216476 57.64147099 30.6961922 62 33 C67.79215133 36.06158417 73.58394021 39.12385159 79.375 42.1875 C80.43507767 42.74822708 80.43507767 42.74822708 81.51657104 43.32028198 C92.41358194 49.08554012 103.28466096 54.89754241 114.14453125 60.73242188 C122.29953575 65.107242 130.49561148 69.39753561 138.71069336 73.65820312 C145.10270617 76.98336646 151.43676546 80.40289246 157.75 83.875 C167.07616815 89.0034651 176.50628549 93.91198359 185.96728516 98.78637695 C193.97389633 102.92185372 201.89896962 107.18550524 209.79296875 111.53125 C217.6769195 115.85766839 225.65227839 119.99648003 233.64233398 124.12280273 C241.79836774 128.34631526 249.87664195 132.7002346 257.921875 137.13085938 C262.24275678 139.50899354 266.56676804 141.83780176 271 144 C269.51253583 147.88617244 267.48375475 149.25614982 263.9609375 151.36328125 C262.9179248 151.99500244 261.87491211 152.62672363 260.80029297 153.27758789 C259.66994629 153.94910889 258.53959961 154.62062988 257.375 155.3125 C256.19476001 156.02412433 255.01524461 156.73695168 253.83642578 157.45092773 C252.01885061 158.55155456 250.20085171 159.65140341 248.38058472 160.74757385 C242.5040637 164.28682549 236.68508341 167.91530847 230.875 171.5625 C228.8998047 172.79958314 226.92454416 174.03656213 224.94921875 175.2734375 C223.97259277 175.88541992 222.9959668 176.49740234 221.98974609 177.12792969 C217.91059034 179.68214872 213.82762289 182.23024278 209.74462891 184.77832031 C206.74877818 186.64923172 203.75507985 188.5235461 200.76171875 190.3984375 C196.93910565 192.79200621 193.10777904 195.17065533 189.26953125 197.5390625 C187.51295956 198.63010969 185.75644604 199.72125053 184 200.8125 C183.18619873 201.31031982 182.37239746 201.80813965 181.53393555 202.32104492 C180.80086182 202.77842041 180.06778809 203.2357959 179.3125 203.70703125 C178.66925781 204.1038208 178.02601562 204.50061035 177.36328125 204.90942383 C176.91339844 205.26931396 176.46351562 205.6292041 176 206 C176 206.66 176 207.32 176 208 C178.06613044 209.60026539 178.06613044 209.60026539 180.765625 211.23828125 C181.79107422 211.88708252 182.81652344 212.53588379 183.87304688 213.2043457 C184.98744141 213.90003662 186.10183594 214.59572754 187.25 215.3125 C188.39700587 216.03587624 189.54348638 216.76008614 190.68945312 217.48510742 C192.4364373 218.59027561 194.18370646 219.69495587 195.93261719 220.79707336 C201.15335038 224.08761944 206.33257282 227.4390825 211.5 230.8125 C213.12101813 231.86860565 214.74211052 232.92459735 216.36328125 233.98046875 C217.524646 234.737229 217.524646 234.737229 218.70947266 235.50927734 C222.36441456 237.88798927 226.02560868 240.25700507 229.6875 242.625 C230.37779297 243.07141846 231.06808594 243.51783691 231.77929688 243.9777832 C233.16060689 244.8709892 234.5419544 245.76413722 235.92333984 246.65722656 C238.73814044 248.47728338 241.55232694 250.29828842 244.36645508 252.11938477 C245.79200364 253.04185612 247.21762245 253.96421892 248.64331055 254.88647461 C252.08636043 257.1138216 255.52860741 259.34238367 258.96875 261.57421875 C267.33379833 266.99831801 275.72311278 272.38312742 284.125 277.75 C294.35406632 284.28609994 304.53474846 290.89320366 314.6953125 297.53515625 C321.4505466 301.95092059 328.22757804 306.33267583 335.00683594 310.71142578 C336.98754495 311.99194785 338.96667404 313.27487502 340.9453125 314.55859375 C349.31788542 319.98835179 357.7151984 325.37807196 366.125 330.75 C377.27842854 337.87674269 388.37118259 345.09328285 399.45019531 352.33496094 C409.96808278 359.20320994 420.53925732 365.98693142 431.125 372.75 C442.27836524 379.87684292 453.37118147 387.09328212 464.45019531 394.33496094 C474.96808278 401.20320994 485.53925732 407.98693142 496.125 414.75 C506.35400825 421.28619185 516.53474745 427.893203 526.6953125 434.53515625 C533.4505466 438.95092059 540.22757804 443.33267583 547.00683594 447.71142578 C548.98754495 448.99194785 550.96667404 450.27487502 552.9453125 451.55859375 C561.31788542 456.98835179 569.7151984 462.37807196 578.125 467.75 C589.27842854 474.87674269 600.37118259 482.09328285 611.45019531 489.33496094 C621.96808278 496.20320994 632.53925732 502.98693142 643.125 509.75 C653.35400825 516.28619185 663.53474745 522.893203 673.6953125 529.53515625 C680.4505466 533.95092059 687.22757804 538.33267583 694.00683594 542.71142578 C695.98754495 543.99194785 697.96667404 545.27487502 699.9453125 546.55859375 C708.31788542 551.98835179 716.7151984 557.37807196 725.125 562.75 C735.35406632 569.28609994 745.53474846 575.89320366 755.6953125 582.53515625 C762.4505466 586.95092059 769.22757804 591.33267583 776.00683594 595.71142578 C777.98754495 596.99194785 779.96667404 598.27487502 781.9453125 599.55859375 C790.31788542 604.98835179 798.7151984 610.37807196 807.125 615.75 C818.27842854 622.87674269 829.37118259 630.09328285 840.45019531 637.33496094 C850.96808278 644.20320994 861.53925732 650.98693142 872.125 657.75 C882.35400825 664.28619185 892.53474745 670.893203 902.6953125 677.53515625 C909.4505466 681.95092059 916.22757804 686.33267583 923.00683594 690.71142578 C924.98754495 691.99194785 926.96667404 693.27487502 928.9453125 694.55859375 C930.29685194 695.4349314 931.64841475 696.31123301 933 697.1875 C933.67095703 697.62288086 934.34191406 698.05826172 935.03320312 698.50683594 C939.51530104 701.40931273 944.01488823 704.28335506 948.5234375 707.14453125 C950.23905348 708.23529337 951.95450343 709.32631619 953.66992188 710.41738892 C955.34846829 711.48315413 957.02968333 712.54471261 958.7109375 713.60620117 C959.7421875 714.26209229 960.7734375 714.9179834 961.8359375 715.59375 C963.22111572 716.47063477 963.22111572 716.47063477 964.63427734 717.36523438 C966.69293098 718.78780866 968.27185464 720.21346582 970 722 C925.14984421 722.32097777 880.29981078 722.56740465 835.4487313 722.71491461 C830.14452993 722.73242291 824.84033081 722.75054358 819.53613281 722.76904297 C818.4802354 722.77271531 817.42433798 722.77638766 816.33644368 722.78017129 C799.27608987 722.84096392 782.21640164 722.95127681 765.15644167 723.08013915 C747.62988466 723.21141426 730.10367439 723.28889698 712.57664597 723.31723893 C701.77537041 723.33637668 690.97597654 723.39664454 680.17528076 723.51083054 C672.75223323 723.58527362 665.33014745 723.60710423 657.90675442 723.58901928 C653.63347956 723.58011742 649.36347339 723.59300313 645.0907917 723.66887665 C625.57274069 723.99828078 611.08025557 722.64679192 595.29614949 709.80595803 C591.45478578 706.78466448 587.31850854 704.22776737 583.1875 701.625 C581.54547806 700.55483303 579.9035262 699.4845585 578.26171875 698.4140625 C572.36186124 694.5769583 566.43118514 690.78843026 560.5 687 C552.98024839 682.19652148 545.47451125 677.37359105 538 672.5 C529.39260696 666.8880464 520.74219273 661.34492841 512.08398438 655.81176758 C502.71152125 649.82066541 493.37027346 643.78260275 484.0390625 637.72753906 C474.87998609 631.78590501 465.69813225 625.88102138 456.5 620 C445.98880586 613.27944458 435.50469875 606.51873629 425.0390625 599.72753906 C415.87998609 593.78590501 406.69813225 587.88102138 397.5 582 C386.98880586 575.27944458 376.50469875 568.51873629 366.0390625 561.72753906 C356.87998609 555.78590501 347.69813225 549.88102138 338.5 544 C327.98880586 537.27944458 317.50469875 530.51873629 307.0390625 523.72753906 C297.87998609 517.78590501 288.69813225 511.88102138 279.5 506 C268.98880586 499.27944458 258.50469875 492.51873629 248.0390625 485.72753906 C238.87998609 479.78590501 229.69813225 473.88102138 220.5 468 C209.98880586 461.27944458 199.50469875 454.51873629 189.0390625 447.72753906 C179.87998609 441.78590501 170.69813225 435.88102138 161.5 430 C150.98880586 423.27944458 140.50469875 416.51873629 130.0390625 409.72753906 C120.87998609 403.78590501 111.69813225 397.88102138 102.5 392 C91.98880586 385.27944458 81.50469875 378.51873629 71.0390625 371.72753906 C61.87998609 365.78590501 52.69813225 359.88102138 43.5 354 C30.35136361 345.59313982 30.35136361 345.59313982 24.05957031 341.52026367 C22.70620015 340.64448751 21.35142127 339.77088373 19.99511719 338.8996582 C16.41030275 336.59128176 12.87002469 334.23243417 9.359375 331.8125 C8.58851563 331.29018799 7.81765625 330.76787598 7.0234375 330.22973633 C5.54437445 329.22638138 4.07493821 328.20863577 2.6171875 327.17456055 C1.62332031 326.50614136 1.62332031 326.50614136 0.609375 325.82421875 C0.03155273 325.42291748 -0.54626953 325.02161621 -1.14160156 324.6081543 C-3.95539453 323.68735053 -5.41219544 324.69782169 -8 326 C-9.53210939 326.88313145 -11.04094339 327.80755699 -12.52734375 328.765625 C-13.39037109 329.31863281 -14.25339844 329.87164062 -15.14257812 330.44140625 C-16.52606445 331.33666016 -16.52606445 331.33666016 -17.9375 332.25 C-19.92570967 333.52615319 -21.91399296 334.8021917 -23.90234375 336.078125 C-24.9166748 336.73103516 -25.93100586 337.38394531 -26.97607422 338.05664062 C-31.64030098 341.05415758 -36.32040563 344.026556 -41 347 C-42.83342059 348.16652954 -44.66675366 349.33319664 -46.5 350.5 C-167.50000002 427.50000001 -167.50000002 427.50000001 -170.24926758 429.24951172 C-172.08506912 430.41776388 -173.9208438 431.58605824 -175.7565918 432.75439453 C-180.30194376 435.64714755 -184.84773967 438.5391977 -189.39453125 441.4296875 C-199.10608469 447.60466368 -208.8086463 453.7933621 -218.5 460 C-229.08706986 466.78028179 -239.68864146 473.53742103 -250.29833984 480.28222656 C-254.86646057 483.18673564 -259.43315077 486.09349229 -264 489 C-265.83332663 490.1666772 -267.66665996 491.33334387 -269.5 492.5 C-270.86125 493.36625 -270.86125 493.36625 -272.25 494.25 C-368.50000001 555.5 -368.50000001 555.5 -371.24926758 557.24951172 C-373.08506912 558.41776388 -374.9208438 559.58605824 -376.7565918 560.75439453 C-381.30194376 563.64714755 -385.84773967 566.5391977 -390.39453125 569.4296875 C-400.10608469 575.60466368 -409.8086463 581.7933621 -419.5 588 C-430.08706986 594.78028179 -440.68864146 601.53742103 -451.29833984 608.28222656 C-455.86646057 611.18673564 -460.43315077 614.09349229 -465 617 C-466.83332663 618.1666772 -468.66665996 619.33334387 -470.5 620.5 C-471.86125 621.36625 -471.86125 621.36625 -473.25 622.25 C-512.66666667 647.33333333 -552.08333333 672.41666667 -591.5 697.5 C-592.35593062 698.04635388 -593.21186123 698.59270777 -594.09372914 699.15561783 C-595.92618021 700.31853081 -597.76410421 701.47290589 -599.60956275 702.6150645 C-604.15019854 705.44362236 -608.49488564 708.32051983 -612.65324593 711.69021797 C-628.35848104 723.8999265 -643.60872343 723.96156228 -662.56620502 723.6249187 C-666.90666374 723.56364606 -671.24689136 723.58497551 -675.58766174 723.59555054 C-683.08269869 723.60284138 -690.57601077 723.55945446 -698.07061386 723.48022079 C-708.90582308 723.36574537 -719.74021044 723.32991077 -730.57595874 723.31238891 C-748.16178733 723.2818557 -765.7466994 723.18898307 -783.33203125 723.05615234 C-800.40001893 722.92736458 -817.46775641 722.82840573 -834.53613281 722.76904297 C-835.59073633 722.76536484 -836.64533984 722.76168671 -837.73190103 722.75789712 C-843.02329081 722.73962471 -848.31468234 722.72193325 -853.60607505 722.70453048 C-897.40468432 722.55973226 -941.20229453 722.31344573 -985 722 C-982.0382934 719.61359908 -979.10411207 717.32428697 -975.91015625 715.2578125 C-975.13776611 714.75660889 -974.36537598 714.25540527 -973.56958008 713.73901367 C-972.32857544 712.9400769 -972.32857544 712.9400769 -971.0625 712.125 C-970.18424561 711.55692627 -969.30599121 710.98885254 -968.40112305 710.40356445 C-960.21211623 705.11587198 -951.98686035 699.88522166 -943.7578125 694.66015625 C-934.55840441 688.81703307 -925.3856662 682.93215623 -916.20849609 677.05419922 C-912.95883234 674.97364293 -909.70809214 672.89477861 -906.45703125 670.81640625 C-892.86521917 662.1260779 -892.86521917 662.1260779 -879.3125 653.375 C-872.14355445 648.72388557 -864.93747636 644.13247992 -857.72509766 639.54907227 C-843.5547538 630.54258064 -829.39783187 621.51401208 -815.3125 612.375 C-808.14353292 607.72391829 -800.93747676 603.13248017 -793.72509766 598.54907227 C-779.5547538 589.54258064 -765.39783187 580.51401208 -751.3125 571.375 C-744.14353292 566.72391829 -736.93747676 562.13248017 -729.72509766 557.54907227 C-715.5547538 548.54258064 -701.39783187 539.51401208 -687.3125 530.375 C-680.14353292 525.72391829 -672.93747676 521.13248017 -665.72509766 516.54907227 C-651.5547538 507.54258064 -637.39783187 498.51401208 -623.3125 489.375 C-616.13773732 484.72015822 -608.92594601 480.12486017 -601.70751953 475.53808594 C-591.52590245 469.06729685 -581.36722355 462.56084152 -571.20849609 456.05419922 C-567.95883234 453.97364293 -564.70809214 451.89477861 -561.45703125 449.81640625 C-547.86521917 441.1260779 -547.86521917 441.1260779 -534.3125 432.375 C-527.14355445 427.72388557 -519.93747636 423.13247992 -512.72509766 418.54907227 C-498.5547538 409.54258064 -484.39783187 400.51401208 -470.3125 391.375 C-463.14353292 386.72391829 -455.93747676 382.13248017 -448.72509766 377.54907227 C-434.5547538 368.54258064 -420.39783187 359.51401208 -406.3125 350.375 C-399.14353292 345.72391829 -391.93747676 341.13248017 -384.72509766 336.54907227 C-370.5547538 327.54258064 -356.39783187 318.51401208 -342.3125 309.375 C-335.14353292 304.72391829 -327.93747676 300.13248017 -320.72509766 295.54907227 C-306.5547538 286.54258064 -292.39783187 277.51401208 -278.3125 268.375 C-271.14353292 263.72391829 -263.93747676 259.13248017 -256.72509766 254.54907227 C-241.89825276 245.12531687 -227.07798116 235.68881436 -212.35644531 226.10107422 C-208.28533126 223.4559493 -204.18713515 220.85866066 -200.0703125 218.28515625 C-199.05412842 217.64723145 -198.03794434 217.00930664 -196.9909668 216.35205078 C-194.98315267 215.0931335 -192.97168322 213.84002395 -190.95629883 212.59326172 C-190.05161865 212.02494629 -189.14693848 211.45663086 -188.21484375 210.87109375 C-187.40136475 210.36505615 -186.58788574 209.85901855 -185.74975586 209.33764648 C-185.17233643 208.89622314 -184.59491699 208.4547998 -184 208 C-184 207.34 -184 206.68 -184 206 C-185.8708355 204.62433561 -185.8708355 204.62433561 -188.3359375 203.26953125 C-189.2846875 202.72167969 -190.2334375 202.17382812 -191.2109375 201.609375 C-192.25507812 201.01640625 -193.29921875 200.4234375 -194.375 199.8125 C-195.45265625 199.19246094 -196.5303125 198.57242188 -197.640625 197.93359375 C-199.93155581 196.61617626 -202.22376269 195.30136492 -204.51855469 193.99072266 C-208.94319086 191.46286537 -213.355561 188.91383619 -217.76855469 186.36572266 C-219.93795331 185.11318834 -222.10788279 183.86157305 -224.27832031 182.61083984 C-233.53702967 177.27500839 -242.77169798 171.89880106 -251.99609375 166.50390625 C-256.21007226 164.04046751 -260.43258951 161.59238699 -264.66015625 159.15234375 C-265.75247559 158.52013916 -266.84479492 157.88793457 -267.97021484 157.23657227 C-270.06109696 156.02675468 -272.15377571 154.82003498 -274.24853516 153.61694336 C-278.75974306 151.00204648 -283.06352619 148.45600485 -287 145 C-264.63195672 133.20261895 -242.19690279 121.53640638 -219.73046875 109.92773438 C-213.61122615 106.76577925 -207.49306065 103.60174132 -201.375 100.4375 C-200.47379425 99.97142838 -200.47379425 99.97142838 -199.55438232 99.49594116 C-190.86672016 95.0028205 -182.18225777 90.50355639 -173.5 86 C-164.21125074 81.18185163 -154.91964425 76.36926388 -145.625 71.5625 C-145.02399475 71.25168488 -144.4229895 70.94086975 -143.80377197 70.62063599 C-138.92489107 68.09755291 -134.04582324 65.57483137 -129.16674805 63.05212402 C-124.90274483 60.84741795 -120.63881533 58.64256941 -116.375 56.4375 C-115.47325043 55.97115646 -115.47325043 55.97115646 -114.55328369 55.49539185 C-104.75314327 50.42690382 -94.95752357 45.34972813 -85.16357422 40.26928711 C-77.55458492 36.32287921 -69.94253859 32.38242898 -62.32861328 28.44555664 C-58.69959035 26.56902716 -55.07087113 24.69191045 -51.44213867 22.81481934 C-48.39653474 21.23941485 -45.35076998 19.66432279 -42.3046875 18.08984375 C-38.70247617 16.227815 -35.10121888 14.36394746 -31.5 12.5 C-30.43330078 11.94892578 -29.36660156 11.39785156 -28.26757812 10.83007812 C-26.7274707 10.0324707 -26.7274707 10.0324707 -25.15625 9.21875 C-23.64998047 8.44337891 -23.64998047 8.44337891 -22.11328125 7.65234375 C-19.90051371 6.4779389 -17.71240829 5.25654309 -15.54296875 4.00390625 C-14.40472656 3.35292969 -13.26648438 2.70195312 -12.09375 2.03125 C-11.06958984 1.42861328 -10.04542969 0.82597656 -8.99023438 0.20507812 C-5.3806857 -1.24958649 -3.70748595 -1.07712545 0 0 Z " fill="#111111" transform="translate(1004,17)"/>
<path d="M0 0 C412.17 0 824.34 0 1249 0 C1249 63.03 1249 126.06 1249 191 C836.83 191 424.66 191 0 191 C0 127.97 0 64.94 0 0 Z " fill="#111111" transform="translate(372,1369)"/>
<path d="M0 0 C71.94 0 143.88 0 218 0 C218 78.54 218 157.08 218 238 C146.06 238 74.12 238 0 238 C0 159.46 0 80.92 0 0 Z " fill="#111111" transform="translate(1042,961)"/>
<path d="M0 0 C71.94 0 143.88 0 218 0 C218 78.54 218 157.08 218 238 C146.06 238 74.12 238 0 238 C0 159.46 0 80.92 0 0 Z " fill="#111111" transform="translate(732,961)"/>
<path d="M0 0 C71.94 0 143.88 0 218 0 C218 78.54 218 157.08 218 238 C146.06 238 74.12 238 0 238 C0 159.46 0 80.92 0 0 Z " fill="#111111" transform="translate(1042,638)"/>
<path d="M0 0 C71.94 0 143.88 0 218 0 C218 78.54 218 157.08 218 238 C146.06 238 74.12 238 0 238 C0 159.46 0 80.92 0 0 Z " fill="#111111" transform="translate(732,638)"/>
</svg>
